<mxfile host="app.diagrams.net" agent="Mozilla/5.0 (Windows NT 10.0; Win64; x64) AppleWebKit/537.36 (KHTML, like Gecko) Chrome/138.0.0.0 Safari/537.36" version="28.0.9">
  <diagram name="Page-1" id="YyVnQOWhaz_ve2YvVl8Q">
    <mxGraphModel dx="1426" dy="777" grid="1" gridSize="10" guides="1" tooltips="1" connect="1" arrows="1" fold="1" page="1" pageScale="1" pageWidth="850" pageHeight="1100" math="0" shadow="0">
      <root>
        <mxCell id="0" />
        <mxCell id="1" parent="0" />
        <mxCell id="FvNubICv-OO8We1WZumu-33" value="" style="edgeStyle=orthogonalEdgeStyle;rounded=0;orthogonalLoop=1;jettySize=auto;html=1;" edge="1" parent="1" source="FvNubICv-OO8We1WZumu-12" target="FvNubICv-OO8We1WZumu-16">
          <mxGeometry relative="1" as="geometry" />
        </mxCell>
        <mxCell id="FvNubICv-OO8We1WZumu-12" value="&lt;b&gt;PDF passed to LlamaParse + optional prompt&lt;/b&gt;" style="rounded=1;whiteSpace=wrap;html=1;fillColor=#f8cecc;strokeColor=#b85450;" vertex="1" parent="1">
          <mxGeometry x="607" y="250" width="160" height="60" as="geometry" />
        </mxCell>
        <mxCell id="FvNubICv-OO8We1WZumu-32" value="" style="edgeStyle=orthogonalEdgeStyle;rounded=0;orthogonalLoop=1;jettySize=auto;html=1;" edge="1" parent="1" source="FvNubICv-OO8We1WZumu-14" target="FvNubICv-OO8We1WZumu-12">
          <mxGeometry relative="1" as="geometry" />
        </mxCell>
        <mxCell id="FvNubICv-OO8We1WZumu-14" value="&lt;b&gt;Backend identifies parsing mode → LlamaParse&lt;/b&gt;" style="rounded=1;whiteSpace=wrap;html=1;fillColor=#dae8fc;strokeColor=#6c8ebf;" vertex="1" parent="1">
          <mxGeometry x="405" y="250" width="165" height="60" as="geometry" />
        </mxCell>
        <mxCell id="FvNubICv-OO8We1WZumu-34" value="" style="edgeStyle=orthogonalEdgeStyle;rounded=0;orthogonalLoop=1;jettySize=auto;html=1;" edge="1" parent="1" source="FvNubICv-OO8We1WZumu-16" target="FvNubICv-OO8We1WZumu-29">
          <mxGeometry relative="1" as="geometry" />
        </mxCell>
        <mxCell id="FvNubICv-OO8We1WZumu-16" value="&lt;b&gt;Structured Nodes generated (Text, Table, Image)&lt;/b&gt;" style="rounded=1;whiteSpace=wrap;html=1;fillColor=#ffe6cc;strokeColor=#d79b00;" vertex="1" parent="1">
          <mxGeometry x="600" y="370" width="174" height="60" as="geometry" />
        </mxCell>
        <mxCell id="FvNubICv-OO8We1WZumu-30" value="" style="edgeStyle=orthogonalEdgeStyle;rounded=0;orthogonalLoop=1;jettySize=auto;html=1;" edge="1" parent="1" source="FvNubICv-OO8We1WZumu-18" target="FvNubICv-OO8We1WZumu-3">
          <mxGeometry relative="1" as="geometry" />
        </mxCell>
        <mxCell id="FvNubICv-OO8We1WZumu-18" value="&lt;b&gt;User enables “Advanced Parsing” + Uploads PDF and click on &quot;Ingest&quot; button&lt;/b&gt;" style="rounded=1;whiteSpace=wrap;html=1;fillColor=#ffe6cc;strokeColor=#d79b00;shadow=1;" vertex="1" parent="1">
          <mxGeometry x="10" y="250" width="170" height="60" as="geometry" />
        </mxCell>
        <mxCell id="FvNubICv-OO8We1WZumu-19" value="" style="edgeStyle=orthogonalEdgeStyle;rounded=0;orthogonalLoop=1;jettySize=auto;html=1;" edge="1" parent="1" target="FvNubICv-OO8We1WZumu-3">
          <mxGeometry relative="1" as="geometry">
            <mxPoint x="293" y="270" as="sourcePoint" />
            <mxPoint x="330" y="270" as="targetPoint" />
          </mxGeometry>
        </mxCell>
        <mxCell id="FvNubICv-OO8We1WZumu-31" value="" style="edgeStyle=orthogonalEdgeStyle;rounded=0;orthogonalLoop=1;jettySize=auto;html=1;" edge="1" parent="1" source="FvNubICv-OO8We1WZumu-3" target="FvNubICv-OO8We1WZumu-14">
          <mxGeometry relative="1" as="geometry" />
        </mxCell>
        <mxCell id="FvNubICv-OO8We1WZumu-3" value="&lt;b&gt;&lt;i&gt;/ingest&lt;/i&gt; API called with &lt;i&gt;subject, filename, use_llmaparse=true&lt;/i&gt;&lt;/b&gt;" style="rounded=1;whiteSpace=wrap;html=1;fillColor=#d5e8d4;strokeColor=#82b366;shadow=1;" vertex="1" parent="1">
          <mxGeometry x="215" y="250" width="150" height="60" as="geometry" />
        </mxCell>
        <mxCell id="FvNubICv-OO8We1WZumu-39" style="edgeStyle=orthogonalEdgeStyle;rounded=0;orthogonalLoop=1;jettySize=auto;html=1;exitX=0;exitY=0.5;exitDx=0;exitDy=0;" edge="1" parent="1" source="FvNubICv-OO8We1WZumu-21">
          <mxGeometry relative="1" as="geometry">
            <mxPoint x="158" y="400" as="targetPoint" />
            <mxPoint x="198" y="400" as="sourcePoint" />
          </mxGeometry>
        </mxCell>
        <mxCell id="FvNubICv-OO8We1WZumu-21" value="&lt;b&gt;Each chunk → tagged with metadata (page, source, UID)&lt;/b&gt;" style="rounded=1;whiteSpace=wrap;html=1;fillColor=#dae8fc;strokeColor=#6c8ebf;" vertex="1" parent="1">
          <mxGeometry x="210" y="370" width="180" height="60" as="geometry" />
        </mxCell>
        <mxCell id="FvNubICv-OO8We1WZumu-23" value="" style="group;" vertex="1" connectable="0" parent="1">
          <mxGeometry x="34" y="339" width="128" height="119" as="geometry" />
        </mxCell>
        <mxCell id="FvNubICv-OO8We1WZumu-24" value="" style="rounded=0;whiteSpace=wrap;html=1;fillColor=#fad9d5;strokeColor=#ae4132;" vertex="1" parent="FvNubICv-OO8We1WZumu-23">
          <mxGeometry x="4.9230769230769225" width="118.15384615384615" height="119" as="geometry" />
        </mxCell>
        <mxCell id="FvNubICv-OO8We1WZumu-25" value="Vector Store" style="text;html=1;align=center;verticalAlign=middle;resizable=0;points=[];autosize=1;strokeColor=none;fillColor=none;" vertex="1" parent="FvNubICv-OO8We1WZumu-23">
          <mxGeometry x="22.85573626373626" y="86.23554376657825" width="90" height="30" as="geometry" />
        </mxCell>
        <mxCell id="FvNubICv-OO8We1WZumu-26" value="" style="group" vertex="1" connectable="0" parent="FvNubICv-OO8We1WZumu-23">
          <mxGeometry x="19.69230769230769" y="10.984615384615385" width="108.30769230769229" height="73.23076923076923" as="geometry" />
        </mxCell>
        <mxCell id="FvNubICv-OO8We1WZumu-27" value="" style="strokeWidth=2;html=1;shape=mxgraph.flowchart.database;whiteSpace=wrap;fillColor=#d0cee2;strokeColor=#56517e;" vertex="1" parent="FvNubICv-OO8We1WZumu-26">
          <mxGeometry x="5.907692307692308" width="78.76923076923076" height="73.23076923076923" as="geometry" />
        </mxCell>
        <mxCell id="FvNubICv-OO8We1WZumu-28" value="Vector&lt;div&gt;Embeddings&amp;nbsp;&lt;/div&gt;" style="text;html=1;align=center;verticalAlign=middle;resizable=0;points=[];autosize=1;strokeColor=none;fillColor=none;" vertex="1" parent="FvNubICv-OO8We1WZumu-26">
          <mxGeometry y="27.46153846153846" width="90" height="40" as="geometry" />
        </mxCell>
        <mxCell id="FvNubICv-OO8We1WZumu-35" value="" style="edgeStyle=orthogonalEdgeStyle;rounded=0;orthogonalLoop=1;jettySize=auto;html=1;" edge="1" parent="1" source="FvNubICv-OO8We1WZumu-29" target="FvNubICv-OO8We1WZumu-21">
          <mxGeometry relative="1" as="geometry" />
        </mxCell>
        <mxCell id="FvNubICv-OO8We1WZumu-29" value="Sub Chunks" style="strokeWidth=2;html=1;shape=mxgraph.flowchart.multi-document;whiteSpace=wrap;fillColor=#d5e8d4;strokeColor=#82b366;" vertex="1" parent="1">
          <mxGeometry x="428" y="370" width="140" height="60" as="geometry" />
        </mxCell>
      </root>
    </mxGraphModel>
  </diagram>
</mxfile>
